<svg width="798" height="343" viewBox="0 0 798 343" fill="none" xmlns="http://www.w3.org/2000/svg">
<g clip-path="url(#clip0_52_72)">
<path d="M336.776 160V90.592H350.744V118.432H381.128V90.592H395.144V160H381.128V130.192H350.744V160H336.776ZM437.364 160.96C430.612 160.96 425.204 159.84 421.14 157.6C417.076 155.328 414.132 152.112 412.308 147.952C410.516 143.792 409.62 138.832 409.62 133.072V90.592H423.876V134.128C423.876 139.312 425.124 143.104 427.62 145.504C430.116 147.872 433.364 149.056 437.364 149.056C440.02 149.056 442.372 148.544 444.42 147.52C446.468 146.464 448.068 144.848 449.22 142.672C450.404 140.464 450.996 137.616 450.996 134.128V90.592H465.156V133.552C465.156 139.152 464.244 144.016 462.42 148.144C460.596 152.24 457.636 155.408 453.54 157.648C449.476 159.856 444.084 160.96 437.364 160.96ZM479.089 160V90.592H499.441L515.329 140.08L531.361 90.592H551.665V160H537.505V106.912L520.801 160H509.809L493.201 107.152V160H479.089ZM562.078 160L586.894 90.592H601.726L626.542 160H612.573L606.91 143.92H581.902L576.142 160H562.078ZM585.07 131.68H603.502L594.334 104.08L585.07 131.68ZM636.964 160V90.592H650.836L682.516 136.528V90.592H696.532V160H683.908L650.932 112.24V160H636.964ZM336.776 259V189.592H357.128L373.016 239.08L389.048 189.592H409.352V259H395.192V205.912L378.488 259H367.496L350.888 206.152V259H336.776ZM419.765 259L444.581 189.592H459.413L484.229 259H470.261L464.597 242.92H439.589L433.829 259H419.765ZM442.757 230.68H461.189L452.021 203.08L442.757 230.68ZM494.651 259V189.592C495.003 189.592 495.979 189.592 497.579 189.592C499.211 189.592 501.115 189.592 503.291 189.592C505.499 189.592 507.691 189.608 509.867 189.64C512.075 189.64 513.915 189.656 515.387 189.688C523.803 189.88 530.667 191.384 535.979 194.2C541.291 197.016 545.179 200.952 547.643 206.008C550.139 211.064 551.387 217.048 551.387 223.96C551.387 231.16 550.075 237.384 547.451 242.632C544.827 247.848 540.811 251.88 535.403 254.728C530.027 257.576 523.195 259 514.907 259H494.651ZM508.763 247.672H515.195C519.163 247.672 522.763 246.904 525.995 245.368C529.259 243.832 531.867 241.32 533.819 237.832C535.771 234.344 536.747 229.688 536.747 223.864C536.747 218.456 535.883 214.072 534.155 210.712C532.427 207.32 529.963 204.84 526.763 203.272C523.563 201.704 519.771 200.92 515.387 200.92H508.763V247.672ZM563.745 259V189.592H611.409L611.361 201.4H577.809V218.248H606.945V229.816H577.713V247.048L611.889 247.096V259H563.745Z" fill="black"/>
<path d="M280 171.5C280 114.891 234.109 69 177.5 69C120.891 69 75 114.891 75 171.5C75 228.109 120.891 274 177.5 274C234.109 274 280 228.109 280 171.5ZM294 171.5C294 235.841 241.841 288 177.5 288C113.159 288 61 235.841 61 171.5C61 107.159 113.159 55 177.5 55C241.841 55 294 107.159 294 171.5Z" fill="black"/>
<path d="M117.776 212V142.592H131.744V170.432H162.128V142.592H176.144V212H162.128V182.192H131.744V212H117.776Z" fill="black"/>
<path d="M161.776 212V142.592H182.128L198.016 192.08L214.048 142.592H234.352V212H220.192V158.912L203.488 212H192.496L175.888 159.152V212H161.776Z" fill="black"/>
<path d="M171.92 117.488C174.928 117.488 177.264 118.256 178.928 119.792C180.656 121.328 181.52 123.472 181.52 126.224C181.52 128.912 180.656 131.024 178.928 132.56C177.264 134.096 174.928 134.864 171.92 134.864C168.976 134.864 166.64 134.096 164.912 132.56C163.184 131.024 162.32 128.912 162.32 126.224C162.32 123.472 163.184 121.328 164.912 119.792C166.64 118.256 168.976 117.488 171.92 117.488Z" fill="black"/>
<path d="M224.6 117.488C227.608 117.488 229.944 118.256 231.608 119.792C233.336 121.328 234.2 123.472 234.2 126.224C234.2 128.912 233.336 131.024 231.608 132.56C229.944 134.096 227.608 134.864 224.6 134.864C221.656 134.864 219.32 134.096 217.592 132.56C215.864 131.024 215 128.912 215 126.224C215 123.472 215.864 121.328 217.592 119.792C219.32 118.256 221.656 117.488 224.6 117.488Z" fill="black"/>
</g>
<defs>
<clipPath id="clip0_52_72">
<rect width="798" height="343" fill="white"/>
</clipPath>
</defs>
</svg>
