<svg width="355" height="323" viewBox="0 0 355 323" fill="none" xmlns="http://www.w3.org/2000/svg">
<path d="M280 161.5C280 104.891 234.109 59 177.5 59C120.891 59 75 104.891 75 161.5C75 218.109 120.891 264 177.5 264C234.109 264 280 218.109 280 161.5ZM294 161.5C294 225.841 241.841 278 177.5 278C113.159 278 61 225.841 61 161.5C61 97.1588 113.159 45 177.5 45C241.841 45 294 97.1588 294 161.5Z" fill="black"/>
<path d="M117.776 202V132.592H131.744V160.432H162.128V132.592H176.144V202H162.128V172.192H131.744V202H117.776Z" fill="black"/>
<path d="M161.776 202V132.592H182.128L198.016 182.08L214.048 132.592H234.352V202H220.192V148.912L203.488 202H192.496L175.888 149.152V202H161.776Z" fill="black"/>
<path d="M171.92 107.488C174.928 107.488 177.264 108.256 178.928 109.792C180.656 111.328 181.52 113.472 181.52 116.224C181.52 118.912 180.656 121.024 178.928 122.56C177.264 124.096 174.928 124.864 171.92 124.864C168.976 124.864 166.64 124.096 164.912 122.56C163.184 121.024 162.32 118.912 162.32 116.224C162.32 113.472 163.184 111.328 164.912 109.792C166.64 108.256 168.976 107.488 171.92 107.488Z" fill="black"/>
<path d="M224.6 107.488C227.608 107.488 229.944 108.256 231.608 109.792C233.336 111.328 234.2 113.472 234.2 116.224C234.2 118.912 233.336 121.024 231.608 122.56C229.944 124.096 227.608 124.864 224.6 124.864C221.656 124.864 219.32 124.096 217.592 122.56C215.864 121.024 215 118.912 215 116.224C215 113.472 215.864 111.328 217.592 109.792C219.32 108.256 221.656 107.488 224.6 107.488Z" fill="black"/>
</svg>
