<svg width="510" height="323" viewBox="0 0 510 323" fill="none" xmlns="http://www.w3.org/2000/svg">
<g clip-path="url(#clip0_52_90)">
<path d="M70.776 150V80.592H84.744V108.432H115.128V80.592H129.144V150H115.128V120.192H84.744V150H70.776ZM171.364 150.96C164.612 150.96 159.204 149.84 155.14 147.6C151.076 145.328 148.132 142.112 146.308 137.952C144.516 133.792 143.62 128.832 143.62 123.072V80.592H157.876V124.128C157.876 129.312 159.124 133.104 161.62 135.504C164.116 137.872 167.364 139.056 171.364 139.056C174.02 139.056 176.372 138.544 178.42 137.52C180.468 136.464 182.068 134.848 183.22 132.672C184.404 130.464 184.996 127.616 184.996 124.128V80.592H199.156V123.552C199.156 129.152 198.244 134.016 196.42 138.144C194.596 142.24 191.636 145.408 187.54 147.648C183.476 149.856 178.084 150.96 171.364 150.96ZM213.089 150V80.592H233.441L249.329 130.08L265.361 80.592H285.665V150H271.505V96.912L254.801 150H243.809L227.201 97.152V150H213.089ZM296.078 150L320.894 80.592H335.726L360.542 150H346.573L340.91 133.92H315.902L310.142 150H296.078ZM319.07 121.68H337.502L328.334 94.08L319.07 121.68ZM370.964 150V80.592H384.836L416.516 126.528V80.592H430.532V150H417.908L384.932 102.24V150H370.964ZM70.776 249V179.592H91.128L107.016 229.08L123.048 179.592H143.352V249H129.192V195.912L112.488 249H101.496L84.888 196.152V249H70.776ZM153.765 249L178.581 179.592H193.413L218.229 249H204.261L198.597 232.92H173.589L167.829 249H153.765ZM176.757 220.68H195.189L186.021 193.08L176.757 220.68ZM228.651 249V179.592C229.003 179.592 229.979 179.592 231.579 179.592C233.211 179.592 235.115 179.592 237.291 179.592C239.499 179.592 241.691 179.608 243.867 179.64C246.075 179.64 247.915 179.656 249.387 179.688C257.803 179.88 264.667 181.384 269.979 184.2C275.291 187.016 279.179 190.952 281.643 196.008C284.139 201.064 285.387 207.048 285.387 213.96C285.387 221.16 284.075 227.384 281.451 232.632C278.827 237.848 274.811 241.88 269.403 244.728C264.027 247.576 257.195 249 248.907 249H228.651ZM242.763 237.672H249.195C253.163 237.672 256.763 236.904 259.995 235.368C263.259 233.832 265.867 231.32 267.819 227.832C269.771 224.344 270.747 219.688 270.747 213.864C270.747 208.456 269.883 204.072 268.155 200.712C266.427 197.32 263.963 194.84 260.763 193.272C257.563 191.704 253.771 190.92 249.387 190.92H242.763V237.672ZM297.745 249V179.592H345.409L345.361 191.4H311.809V208.248H340.945V219.816H311.713V237.048L345.889 237.096V249H297.745Z" fill="black"/>
</g>
<defs>
<clipPath id="clip0_52_90">
<rect width="510" height="323" fill="white"/>
</clipPath>
</defs>
</svg>
